<mxfile host="app.diagrams.net" modified="2021-11-09T11:01:54.282Z" agent="5.0 (Windows NT 10.0; Win64; x64) AppleWebKit/537.36 (KHTML, like Gecko) Chrome/95.0.4638.69 Safari/537.36" etag="etzkmgaLO0NatJxFqk0p" version="15.7.0" type="github">
  <diagram id="sQ8EXhfYu_Z4RW1TYD9f" name="Page-1">
    <mxGraphModel dx="1422" dy="762" grid="1" gridSize="10" guides="1" tooltips="1" connect="1" arrows="1" fold="1" page="1" pageScale="1" pageWidth="827" pageHeight="1169" math="0" shadow="0">
      <root>
        <mxCell id="0" />
        <mxCell id="1" parent="0" />
        <mxCell id="wOnGFkAYj0Utu0_wV-MN-16" value="구현" style="swimlane;fillColor=#dae8fc;strokeColor=#6c8ebf;" parent="1" vertex="1">
          <mxGeometry x="270" y="50" width="330" height="670" as="geometry" />
        </mxCell>
        <mxCell id="wOnGFkAYj0Utu0_wV-MN-17" value="분석 | 논의" style="swimlane;strokeColor=#82b366;fillColor=#D5E8D4;" parent="1" vertex="1">
          <mxGeometry x="49" y="50" width="200" height="360" as="geometry" />
        </mxCell>
        <mxCell id="wOnGFkAYj0Utu0_wV-MN-18" value="고려" style="swimlane;fillColor=#e1d5e7;strokeColor=#9673a6;" parent="1" vertex="1">
          <mxGeometry x="607" y="50" width="220" height="360" as="geometry" />
        </mxCell>
        <mxCell id="MTrl5ynQiznJmTlUDSWs-4" value="대기 | 요청" style="swimlane;strokeColor=#d79b00;fillColor=#ffe6cc;" parent="1" vertex="1">
          <mxGeometry x="49" y="420" width="200" height="300" as="geometry" />
        </mxCell>
        <mxCell id="9A0mLHsorhuxDrabdEOj-9" value="에러 | 수정" style="swimlane;fillColor=#f8cecc;strokeColor=#b85450;" parent="1" vertex="1">
          <mxGeometry x="610" y="420" width="500" height="300" as="geometry" />
        </mxCell>
        <mxCell id="hDPYIisuoytdxOGGVnbc-3" value="     폐기 | 완료" style="swimlane;strokeColor=#666666;fillColor=#f5f5f5;fontColor=#333333;align=left;" parent="1" vertex="1">
          <mxGeometry x="1130" y="50" width="760" height="940" as="geometry" />
        </mxCell>
        <mxCell id="oOCu8RneQVGR8Xrj8QCr-1" value="Show Image" style="rounded=1;whiteSpace=wrap;html=1;" parent="hDPYIisuoytdxOGGVnbc-3" vertex="1">
          <mxGeometry x="15" y="30" width="159" height="60" as="geometry" />
        </mxCell>
        <mxCell id="05mQRoWf28WKslGJqCaU-1" value="Narration" style="rounded=1;whiteSpace=wrap;html=1;" parent="hDPYIisuoytdxOGGVnbc-3" vertex="1">
          <mxGeometry x="15" y="100" width="159" height="60" as="geometry" />
        </mxCell>
        <mxCell id="6ZjYbtyTEZWODxd-v2go-1" value="Show Title" style="rounded=1;whiteSpace=wrap;html=1;" parent="hDPYIisuoytdxOGGVnbc-3" vertex="1">
          <mxGeometry x="15" y="170" width="159" height="60" as="geometry" />
        </mxCell>
        <mxCell id="WOiixjcaWau5qx4NUVO9-6" value="대사 패널 화자 변경연출 적용" style="rounded=1;whiteSpace=wrap;html=1;" parent="hDPYIisuoytdxOGGVnbc-3" vertex="1">
          <mxGeometry x="15" y="240" width="159" height="60" as="geometry" />
        </mxCell>
        <mxCell id="WOiixjcaWau5qx4NUVO9-9" value="Dimmed 연출 개선" style="rounded=1;whiteSpace=wrap;html=1;fillColor=default;strokeColor=default;fontColor=default;" parent="hDPYIisuoytdxOGGVnbc-3" vertex="1">
          <mxGeometry x="15" y="310" width="159" height="60" as="geometry" />
        </mxCell>
        <mxCell id="xAuZRR-7beqnKGWXu1d4-1" value="MainHUD 출력 기능 추가" style="rounded=1;whiteSpace=wrap;html=1;" parent="hDPYIisuoytdxOGGVnbc-3" vertex="1">
          <mxGeometry x="15" y="380" width="159" height="60" as="geometry" />
        </mxCell>
        <mxCell id="WOiixjcaWau5qx4NUVO9-2" value="Despawn 시 Respawn이 안되는 문제" style="rounded=1;whiteSpace=wrap;html=1;" parent="hDPYIisuoytdxOGGVnbc-3" vertex="1">
          <mxGeometry x="15" y="450" width="159" height="60" as="geometry" />
        </mxCell>
        <mxCell id="WOiixjcaWau5qx4NUVO9-4" value="ChangeBackground 배경이름 출력" style="rounded=1;whiteSpace=wrap;html=1;" parent="hDPYIisuoytdxOGGVnbc-3" vertex="1">
          <mxGeometry x="15" y="520" width="159" height="60" as="geometry" />
        </mxCell>
        <mxCell id="WOiixjcaWau5qx4NUVO9-10" value="Talk 액터 칭호 출력" style="rounded=1;whiteSpace=wrap;html=1;" parent="hDPYIisuoytdxOGGVnbc-3" vertex="1">
          <mxGeometry x="15" y="590" width="159" height="60" as="geometry" />
        </mxCell>
        <mxCell id="WOiixjcaWau5qx4NUVO9-5" value="Fade 색상옵션 선택기능" style="rounded=1;whiteSpace=wrap;html=1;" parent="hDPYIisuoytdxOGGVnbc-3" vertex="1">
          <mxGeometry x="15" y="660" width="159" height="60" as="geometry" />
        </mxCell>
        <mxCell id="WOiixjcaWau5qx4NUVO9-3" value="캐릭터 Dimmed 적용이 제대로 안되는 문제" style="rounded=1;whiteSpace=wrap;html=1;" parent="hDPYIisuoytdxOGGVnbc-3" vertex="1">
          <mxGeometry x="15" y="730" width="159" height="60" as="geometry" />
        </mxCell>
        <mxCell id="6ZjYbtyTEZWODxd-v2go-2" value="SD Talk" style="rounded=1;whiteSpace=wrap;html=1;" parent="hDPYIisuoytdxOGGVnbc-3" vertex="1">
          <mxGeometry x="15" y="800" width="159" height="60" as="geometry" />
        </mxCell>
        <mxCell id="WOiixjcaWau5qx4NUVO9-8" value="Actor Tarnsition과 Shake 동시적용" style="rounded=1;whiteSpace=wrap;html=1;" parent="hDPYIisuoytdxOGGVnbc-3" vertex="1">
          <mxGeometry x="15" y="870" width="159" height="60" as="geometry" />
        </mxCell>
        <mxCell id="ges_LAsTjSap_fU4gP7o-1" value="Narration 순차 출력 기능 추가" style="rounded=1;whiteSpace=wrap;html=1;" parent="hDPYIisuoytdxOGGVnbc-3" vertex="1">
          <mxGeometry x="189" y="30" width="159" height="60" as="geometry" />
        </mxCell>
        <mxCell id="ges_LAsTjSap_fU4gP7o-2" value="Narration 특수 출력 기능 추가" style="rounded=1;whiteSpace=wrap;html=1;" parent="hDPYIisuoytdxOGGVnbc-3" vertex="1">
          <mxGeometry x="190" y="100" width="159" height="60" as="geometry" />
        </mxCell>
        <mxCell id="hKP9neJqCWNwOJkLDUDI-4" value="SDTalk 화자 변경 연출 위치 조정" style="rounded=1;whiteSpace=wrap;html=1;" parent="hDPYIisuoytdxOGGVnbc-3" vertex="1">
          <mxGeometry x="190" y="170" width="159" height="60" as="geometry" />
        </mxCell>
        <mxCell id="K7y9alWfTLHeHLA31MiW-2" value="SDTalk 스크린페이드 전에 안꺼지는 이유 찾기" style="rounded=1;whiteSpace=wrap;html=1;" parent="hDPYIisuoytdxOGGVnbc-3" vertex="1">
          <mxGeometry x="190" y="240" width="159" height="60" as="geometry" />
        </mxCell>
        <mxCell id="K7y9alWfTLHeHLA31MiW-1" value="SDTalk 맨처음에는 화자 변경 연출 안나오게 수정" style="rounded=1;whiteSpace=wrap;html=1;" parent="hDPYIisuoytdxOGGVnbc-3" vertex="1">
          <mxGeometry x="190" y="310" width="159" height="60" as="geometry" />
        </mxCell>
        <mxCell id="hKP9neJqCWNwOJkLDUDI-3" value="화자가 바뀔 때만 화자 변경 연출 적용 (SDTalk도 동일)" style="rounded=1;whiteSpace=wrap;html=1;" parent="hDPYIisuoytdxOGGVnbc-3" vertex="1">
          <mxGeometry x="190" y="380" width="159" height="60" as="geometry" />
        </mxCell>
        <mxCell id="SMPNWwXlYlf1QM9dwdxp-1" value="Change BGM" style="rounded=1;whiteSpace=wrap;html=1;" parent="hDPYIisuoytdxOGGVnbc-3" vertex="1">
          <mxGeometry x="190" y="450" width="159" height="60" as="geometry" />
        </mxCell>
        <mxCell id="WOiixjcaWau5qx4NUVO9-11" value="Change Animation" style="rounded=1;whiteSpace=wrap;html=1;" parent="hDPYIisuoytdxOGGVnbc-3" vertex="1">
          <mxGeometry x="190" y="520" width="159" height="60" as="geometry" />
        </mxCell>
        <mxCell id="K7y9alWfTLHeHLA31MiW-8" value="Narration 관련 애니메이션의 TextBlock을 ScrollBox로 대체" style="rounded=1;whiteSpace=wrap;html=1;" parent="hDPYIisuoytdxOGGVnbc-3" vertex="1">
          <mxGeometry x="190" y="590" width="159" height="60" as="geometry" />
        </mxCell>
        <mxCell id="K7y9alWfTLHeHLA31MiW-6" value="ScreenFade Fade에서 실행되는 UI 애니메이션 Fade In, Fade Out으로 수정" style="rounded=1;whiteSpace=wrap;html=1;" parent="hDPYIisuoytdxOGGVnbc-3" vertex="1">
          <mxGeometry x="189" y="660" width="159" height="60" as="geometry" />
        </mxCell>
        <mxCell id="hKP9neJqCWNwOJkLDUDI-1" value="SDTalk 눌러야 넘어가는 지점이 정해져있는 것 같은데...?" style="rounded=1;whiteSpace=wrap;html=1;" parent="hDPYIisuoytdxOGGVnbc-3" vertex="1">
          <mxGeometry x="190" y="730" width="159" height="60" as="geometry" />
        </mxCell>
        <mxCell id="K7y9alWfTLHeHLA31MiW-5" value="Dialogue 사운드 감소 옵션 재적용" style="rounded=1;whiteSpace=wrap;html=1;" parent="hDPYIisuoytdxOGGVnbc-3" vertex="1">
          <mxGeometry x="190" y="800" width="159" height="60" as="geometry" />
        </mxCell>
        <mxCell id="hKP9neJqCWNwOJkLDUDI-2" value="Narration에서 한 번에 출력도 ScrollBox로 하기 [창곤님]" style="rounded=1;whiteSpace=wrap;html=1;" parent="hDPYIisuoytdxOGGVnbc-3" vertex="1">
          <mxGeometry x="190" y="870" width="159" height="60" as="geometry" />
        </mxCell>
        <mxCell id="F0gXtykYgZGNa-DqujZ8-1" value="ScreenFade의 WidgetSwitch 부분 제거" style="rounded=1;whiteSpace=wrap;html=1;" parent="hDPYIisuoytdxOGGVnbc-3" vertex="1">
          <mxGeometry x="360" y="30" width="159" height="60" as="geometry" />
        </mxCell>
        <mxCell id="K7y9alWfTLHeHLA31MiW-3" value="ChangeBGM 사운드 페이드 기능" style="rounded=1;whiteSpace=wrap;html=1;" parent="hDPYIisuoytdxOGGVnbc-3" vertex="1">
          <mxGeometry x="360" y="100" width="159" height="60" as="geometry" />
        </mxCell>
        <mxCell id="A28ZXiPN0wlrUCPEaGVf-1" value="Show Image 할 때 Despawn된 모든 캐릭터가 보이는 현상 해결" style="rounded=1;whiteSpace=wrap;html=1;fillColor=default;strokeColor=default;fontColor=default;" parent="hDPYIisuoytdxOGGVnbc-3" vertex="1">
          <mxGeometry x="360" y="170" width="159" height="60" as="geometry" />
        </mxCell>
        <mxCell id="8NWg-BWWV9LjVkZvFajH-1" value="ShowImage 액션시 뒤의 조이패드가 노출되는 현상 수정" style="rounded=1;whiteSpace=wrap;html=1;fillColor=default;strokeColor=default;fontColor=default;" vertex="1" parent="hDPYIisuoytdxOGGVnbc-3">
          <mxGeometry x="360" y="240" width="159" height="60" as="geometry" />
        </mxCell>
        <mxCell id="6kkVd8V_ymKgZ0_L0vxy-3" value="My Commit" style="swimlane;" parent="1" vertex="1">
          <mxGeometry x="49" y="730" width="1061" height="260" as="geometry">
            <mxRectangle x="49" y="720" width="100" height="23" as="alternateBounds" />
          </mxGeometry>
        </mxCell>
        <mxCell id="oumLD8d3DvaTa1NXrWpt-27" value="Tool" style="swimlane;horizontal=0;" parent="1" vertex="1">
          <mxGeometry x="840" y="50" width="270" height="360" as="geometry" />
        </mxCell>
        <mxCell id="oumLD8d3DvaTa1NXrWpt-25" value="" style="rounded=1;whiteSpace=wrap;html=1;" parent="oumLD8d3DvaTa1NXrWpt-27" vertex="1">
          <mxGeometry x="31" y="10" width="159" height="60" as="geometry" />
        </mxCell>
        <mxCell id="oumLD8d3DvaTa1NXrWpt-31" value="" style="group" parent="oumLD8d3DvaTa1NXrWpt-27" vertex="1" connectable="0">
          <mxGeometry x="31" y="90" width="220" height="80" as="geometry" />
        </mxCell>
        <mxCell id="oumLD8d3DvaTa1NXrWpt-28" value="" style="rounded=1;whiteSpace=wrap;html=1;" parent="oumLD8d3DvaTa1NXrWpt-31" vertex="1">
          <mxGeometry width="159" height="60" as="geometry" />
        </mxCell>
        <mxCell id="oumLD8d3DvaTa1NXrWpt-29" value="" style="rounded=0;whiteSpace=wrap;html=1;" parent="oumLD8d3DvaTa1NXrWpt-31" vertex="1">
          <mxGeometry x="100" y="60" width="120" height="20" as="geometry" />
        </mxCell>
        <mxCell id="oumLD8d3DvaTa1NXrWpt-30" value="" style="rounded=0;whiteSpace=wrap;html=1;" parent="oumLD8d3DvaTa1NXrWpt-31" vertex="1">
          <mxGeometry x="100" y="40" width="120" height="20" as="geometry" />
        </mxCell>
        <mxCell id="oumLD8d3DvaTa1NXrWpt-32" value="" style="swimlane;fillColor=#dae8fc;strokeColor=#6c8ebf;" parent="oumLD8d3DvaTa1NXrWpt-27" vertex="1">
          <mxGeometry x="31.5" y="180" width="219.5" height="60" as="geometry" />
        </mxCell>
        <mxCell id="oumLD8d3DvaTa1NXrWpt-34" value="" style="swimlane;" parent="oumLD8d3DvaTa1NXrWpt-27" vertex="1">
          <mxGeometry x="31" y="260" width="219" height="50" as="geometry" />
        </mxCell>
        <mxCell id="Fb32EvJjGHJRLybvlaYY-3" value="Text" style="text;html=1;align=left;verticalAlign=middle;resizable=0;points=[];autosize=1;strokeColor=none;" parent="oumLD8d3DvaTa1NXrWpt-27" vertex="1">
          <mxGeometry x="220" y="20" width="40" height="20" as="geometry" />
        </mxCell>
      </root>
    </mxGraphModel>
  </diagram>
</mxfile>
